<svg xmlns="http://www.w3.org/2000/svg" width="10" height="10" viewBox="0 0 10 10" fill="none">
  <g clip-path="url(#clip0_1_758)">
    <path d="M10 5C10 2.23857 7.76143 0 5 0C2.23857 0 0 2.23857 0 5C0 7.49561 1.82842 9.56416 4.21875 9.93926V6.44531H2.94922V5H4.21875V3.89844C4.21875 2.64531 4.96523 1.95313 6.10732 1.95313C6.6542 1.95313 7.22656 2.05078 7.22656 2.05078V3.28125H6.59609C5.975 3.28125 5.78125 3.6667 5.78125 4.0625V5H7.16797L6.94629 6.44531H5.78125V9.93926C8.17158 9.56416 10 7.49561 10 5Z" fill="white"/>
  </g>
  <defs>
    <clipPath id="clip0_1_758">
      <rect width="10" height="10" fill="white"/>
    </clipPath>
  </defs>
</svg>